<svg xmlns="http://www.w3.org/2000/svg" xmlns:xlink="http://www.w3.org/1999/xlink" viewBox="0 0 367.72 261.08">
  <defs>
    <style>
      .\35 51f4223-8d0b-4ce5-9094-89dde1eb558d {
        fill: url(#2ec7d33e-4fa4-4baa-bdb6-187ab11179a6);
      }

      .e66740cb-25ce-41e5-a443-c1a67b794fed {
        fill: url(#7ebe2a06-8562-4914-bc4b-81065679d65a);
      }

      .\39 5a4f267-d689-4729-8767-6c8ebcbd2a4c {
        fill: url(#bf6755a8-d105-4771-aa8c-2b7e681532b3);
      }

      .\36 45c95cd-0b9a-42b9-9bb6-7fdf40b60a08 {
        fill: url(#0e18bb6d-78cb-4ba7-9ec3-aafc7ed28f50);
      }

      .fe3d2f08-6379-4fc4-a328-f7c469eacb8b {
        fill: url(#8d4aaff9-53be-4e53-9f1f-95657b54a576);
      }

      .\34 9982865-b973-4fca-bbe8-0458d3bac9d7 {
        fill: url(#1d4092ab-715a-4913-8dd1-df5c3be09005);
      }

      .\32 c4c7e52-965a-45bc-9563-befbb39d86cd {
        fill: url(#fc298d11-bc8a-4b13-8484-7fd69c2fa7ef);
      }

      .\37 0dba494-6412-49b4-98bf-f3dc0ea662bf {
        fill: url(#8e591cf3-03a6-4edb-be78-1d5b88a59277);
      }

      .\30 24cff05-27fc-47e3-aacd-dd9ba41ee538 {
        fill: url(#48d947e5-9725-45f1-82cf-696e6f0731e2);
      }

      .\30 c5353c3-3187-484d-9eb2-540ec0100c98 {
        fill: url(#687c0065-3e2f-40e4-bbcc-af0a3b383f8f);
      }

      .\39 b548ab2-ffd2-45a1-8285-a07a2dcb9a69 {
        fill: url(#1ac7080e-79b2-4eb8-b96c-5f3db653227b);
      }

      .\37 473fe26-7ac5-4ff8-aec6-972f9b939877 {
        fill: url(#674c262f-90aa-4e01-890e-b125a12a823d);
      }

      .\37 685c2f6-d06e-412d-8e29-53eac50aa063 {
        fill: url(#2429c92c-b5e0-4b4f-b3cf-0a4b367ee713);
      }

      .\34 6681a67-2a7b-4d8a-af3f-c6314c2a3010 {
        fill: url(#9a6bcec7-312a-4e1d-9632-e39be6786d0e);
      }

      .\34 c4fc633-bd4f-4325-a0a2-8b5dfb1a7ede {
        fill: url(#9bb97e57-492a-4862-a3ad-63719ee6b8bf);
      }

      .\33 b65b4d4-bf88-46b2-a06d-1a7d00df8fc1 {
        fill: url(#463417b2-9dfb-4ebd-a1fb-d617f27b9918);
      }

      .\37 9cca874-fa85-47fe-84c4-8386577786c4 {
        fill: url(#6d150998-fa44-43d2-bc97-b488572bf50e);
      }

      .aeaed66a-bad3-4eae-a823-9836253018c9 {
        fill: url(#70095d3b-400e-4af3-aab1-85b9e08e10b5);
      }

      .f5c120f0-a416-4a82-8207-081d318876b9 {
        fill: url(#888d9468-d55f-4404-a146-f59c01e0a82d);
      }

      .b5a6f034-ec3d-46b7-bada-9c52a71f7241 {
        fill: url(#b150818e-d1a4-4c27-bc79-157cc53a3c53);
      }

      .aab33f39-d3ed-4cf1-a731-581564caf353 {
        fill: url(#7ea6a92b-a1bc-4341-8df9-84a96fcd5cf4);
      }

      .bd9467f7-5ba5-4a11-96be-4b3317cc19e8 {
        fill: url(#2f3d802e-8b5a-4e9e-b3f0-67e376004848);
      }

      .\30 0e2db14-7aaf-4ea6-8a61-6ff3f5996edb {
        fill: url(#a96c56d2-33e0-4c4a-97b6-3e30c210fe4b);
      }

      .\33 cc6abfc-8e33-481a-8277-f5871493b7c6 {
        fill: url(#ca53515e-25a2-4f1e-8bb0-f55286fa3efc);
      }

      .\33 24b3239-4c6f-4449-8bdd-e648b0676847 {
        fill: url(#7d32167b-8922-4a8d-a3bf-6a011994e83d);
      }

      .cd100998-d62b-4b28-8627-77da87c70d97 {
        fill: url(#9c586f8f-2db8-42fa-b36e-9ef60e580cb4);
      }

      .e203392b-8456-4131-bfba-36c959d21b37 {
        fill: url(#e242a308-2733-4e45-8867-dade3350b8b0);
      }

      .b05546cd-d07c-470c-854c-805532488a68 {
        fill: url(#789e1283-f502-43b9-b6fb-08bc7be4151c);
      }

      .e6ace289-90fa-49d7-b9f3-410695e8206b {
        fill: url(#4cb8fc1c-c140-4212-8bcb-c992fda413d3);
      }

      .ebdc2f58-69ed-4bb0-a78c-e5e195328190 {
        fill: url(#74725f07-fae2-4f1d-b689-a0205910c3d6);
      }

      .\32 d37d7ee-a43e-478d-9995-85be992e990f {
        fill: url(#3621d996-f9ba-45e8-bf4a-c59308ac3e23);
      }

      .\30 017f024-6d2e-4e74-ab1c-f48ad12c6d59 {
        fill: url(#f4e446ef-1da6-47d4-b4b6-e11db44b1034);
      }

      .bfdcfdb9-76fd-4d3a-9be2-3449d3b12460 {
        fill: url(#d9fba9c3-093d-4cfd-a255-7975f5746992);
      }

      .f0022986-b956-4d27-914b-b6b1b807896f {
        fill: url(#7721c017-7719-43a1-9605-d06349277e27);
      }

      .\31 466b8d1-cb2e-47bf-bea5-82f9102cd038 {
        fill: url(#04e095e3-7c20-4e69-89ea-d3a43635c148);
      }

      .\34 0ae350c-12a0-4eba-ae3d-07da05f4d5bf {
        fill: url(#f11d0028-74f3-4108-b799-39b145b7d9ab);
      }

      .fc50b78b-2646-4cc0-a86f-40f70512014a {
        fill: url(#8851d3cd-7d21-44ab-ae26-acae2897419e);
      }

      .\36 67f1316-3153-40d2-a845-b666f0f07e88 {
        fill: url(#c49b1a9f-fbef-454b-9220-af196482e6ee);
      }

      .\39 50ab8ad-3879-493c-baff-e4979ee56851 {
        fill: url(#99205776-fc2f-4c09-97e6-9a7068e73be8);
      }

      .\32 63b9094-a75a-47ba-b011-95562222218e {
        fill: url(#435cbaaa-162d-43eb-9a54-3c829d4f955f);
      }

      .\37 cd57322-9589-4b7c-8798-92560758c003 {
        fill: url(#c4d5078a-37c4-47eb-ad68-ebb82535b5c4);
      }

      .\33 51cb91b-92fe-4d2f-a315-81dd319d0ade {
        fill: url(#94988a1a-26a4-4c23-9525-5790a372122c);
      }

      .\36 1609e7f-0810-4990-9dfd-1eef18135f1d {
        fill: url(#2fba3d46-3fc3-485c-b960-2ab0d14a477b);
      }

      .\37 a9c28f8-d771-4e15-a4aa-477a2d968d6a {
        fill: url(#f4d6f4f5-fb13-44cd-9025-632c1b2f65b0);
      }

      .\39 5045ee6-3f76-4f6d-8fba-2b9b6b583fdc {
        fill: url(#d2a127aa-38b0-4d2e-8ebb-cb813e20bdd2);
      }

      .\38 dce185e-aeb2-4386-9593-79a308cdeafb {
        fill: url(#16bf5c0c-157a-4270-a72e-87eea09511a6);
      }

      .dfa8bb76-88e7-4fcc-b4b6-506d10216961 {
        fill: url(#37a2ef0a-7ebc-43ba-81a8-d4e86d1cb7ab);
      }

      .\32 7c0f91c-b1ee-4354-a8f0-059df3026f0e {
        fill: url(#2c21d7ee-bf8c-4b33-a9ba-923f8f93b6bd);
      }

      .\39 09c190b-8b0e-4909-beed-c5fbf07da120 {
        fill: url(#7b68e7c5-d212-43f6-8f54-6301b133e26a);
      }

      .a131ee49-f8c7-48a1-a1d8-81a22d39c363 {
        fill: url(#84d575f9-789a-414c-bb45-25060674c4db);
      }

      .a15b4d6d-8367-4c19-b64a-4e0ec360f995 {
        fill: url(#d4a77ffa-7ae7-43fd-9434-e75f2abfc78c);
      }

      .a70a2c9f-9647-4ea7-bab8-9cd30fd8581f {
        fill: url(#c39954e7-b4ca-43e4-8377-f04ebc3eca21);
      }

      .\35 9e060aa-d8ff-4d25-b355-62f82e77f350 {
        fill: url(#7318881c-ac6b-4d5b-b7ea-a5f22cee1d43);
      }

      .\31 18159de-501b-4cc3-bfd2-357cd92a80d1 {
        fill: url(#899a3498-688e-4680-a0b2-15dd5bb3dbdc);
      }

      .d98bbbaf-1ed6-484c-a94b-29dfab663df9 {
        fill: url(#ee95f06d-7db8-4a67-abb9-db398a110991);
      }

      .\35 7cbf0ff-8094-477a-9219-caed29b47801 {
        fill: url(#b33df43f-dcc2-43fb-b328-35b18e65aece);
      }

      .\38 b12e127-15d2-4144-9e9b-b7ad53a91f95 {
        fill: url(#b2d1491f-1fd1-47aa-8325-441ca0c1a097);
      }

      .caebd01a-56e7-4f22-bb24-edd092a0de66 {
        fill: url(#15d83922-0585-42e4-806e-62e35b4821d9);
      }

      .\35 67c64e7-88af-4640-8c0f-8e758a6a9a6e {
        fill: url(#70743f7f-eb7f-4f64-9162-38f85964c196);
      }

      .be52820f-24aa-4e2c-8575-a42e45578009 {
        fill: url(#5b0f3444-b843-4cb9-97b5-4611b73d0940);
      }

      .e49ba928-547f-4a8d-999c-bdb94d92f6da {
        fill: url(#de5aa258-3b96-4783-8a4f-aafc244a525c);
      }

      .d147cdec-eac7-403f-bd52-6f69842ff0ce {
        fill: url(#bd39b710-f78d-4a3f-a38c-9c91d097043b);
      }

      .c50b785e-959e-49d0-bf7b-0e1da55503bf {
        fill: url(#ed15dd76-7f15-4644-8015-2fca8c7713f5);
      }

      .\32 0fa5645-9941-43c1-b24e-3e76f4cc7ea9 {
        fill: url(#ea89da28-733a-4722-8c26-633acc42883d);
      }

      .\34 5a30f13-325e-4845-8a4d-31ffb98ddb43 {
        fill: url(#b9433334-7e39-4aec-a2af-c6e01074eae3);
      }

      .a02c833c-3711-4c0d-a131-143a37749b9d {
        fill: #fff;
      }

      .\39 12f26bf-b1b1-40d8-a851-54b588c61124 {
        fill: #1c4671;
      }
    </style>
    <linearGradient id="2ec7d33e-4fa4-4baa-bdb6-187ab11179a6" data-name="Loodse Gradient Bright" x1="183.86" y1="0.92" x2="183.86" y2="268.19" gradientUnits="userSpaceOnUse">
      <stop offset="0" stop-color="#0b5f91"/>
      <stop offset="0.5" stop-color="#3cb1c5"/>
      <stop offset="1" stop-color="#c1e0cd"/>
    </linearGradient>
    <linearGradient id="7ebe2a06-8562-4914-bc4b-81065679d65a" x1="183.94" y1="110.26" x2="183.94" y2="225.44" xlink:href="#2ec7d33e-4fa4-4baa-bdb6-187ab11179a6"/>
    <linearGradient id="bf6755a8-d105-4771-aa8c-2b7e681532b3" x1="255.94" y1="62.58" x2="255.94" y2="174.59" xlink:href="#2ec7d33e-4fa4-4baa-bdb6-187ab11179a6"/>
    <linearGradient id="0e18bb6d-78cb-4ba7-9ec3-aafc7ed28f50" x1="114.99" y1="62.58" x2="114.99" y2="174.59" xlink:href="#2ec7d33e-4fa4-4baa-bdb6-187ab11179a6"/>
    <linearGradient id="8d4aaff9-53be-4e53-9f1f-95657b54a576" x1="18.92" y1="51.23" x2="129.51" y2="51.23" xlink:href="#2ec7d33e-4fa4-4baa-bdb6-187ab11179a6"/>
    <linearGradient id="1d4092ab-715a-4913-8dd1-df5c3be09005" x1="238.21" y1="52.2" x2="348.79" y2="52.2" xlink:href="#2ec7d33e-4fa4-4baa-bdb6-187ab11179a6"/>
    <linearGradient id="fc298d11-bc8a-4b13-8484-7fd69c2fa7ef" x1="238.21" y1="50.76" x2="348.79" y2="50.76" xlink:href="#2ec7d33e-4fa4-4baa-bdb6-187ab11179a6"/>
    <linearGradient id="8e591cf3-03a6-4edb-be78-1d5b88a59277" x1="111.1" y1="54.38" x2="317.73" y2="54.38" xlink:href="#2ec7d33e-4fa4-4baa-bdb6-187ab11179a6"/>
    <linearGradient id="48d947e5-9725-45f1-82cf-696e6f0731e2" x1="337.18" y1="-2.7" x2="235.18" y2="95.3" xlink:href="#2ec7d33e-4fa4-4baa-bdb6-187ab11179a6"/>
    <linearGradient id="687c0065-3e2f-40e4-bbcc-af0a3b383f8f" x1="18.92" y1="49.37" x2="129.51" y2="49.37" xlink:href="#2ec7d33e-4fa4-4baa-bdb6-187ab11179a6"/>
    <linearGradient id="1ac7080e-79b2-4eb8-b96c-5f3db653227b" x1="18.92" y1="54.05" x2="129.51" y2="54.05" xlink:href="#2ec7d33e-4fa4-4baa-bdb6-187ab11179a6"/>
    <linearGradient id="674c262f-90aa-4e01-890e-b125a12a823d" x1="41.1" y1="54.05" x2="247.73" y2="54.05" xlink:href="#2ec7d33e-4fa4-4baa-bdb6-187ab11179a6"/>
    <linearGradient id="2429c92c-b5e0-4b4f-b3cf-0a4b367ee713" x1="135.34" y1="253.75" x2="331.04" y2="253.75" xlink:href="#2ec7d33e-4fa4-4baa-bdb6-187ab11179a6"/>
    <linearGradient id="9a6bcec7-312a-4e1d-9632-e39be6786d0e" x1="135.34" y1="261.06" x2="331.04" y2="261.06" xlink:href="#2ec7d33e-4fa4-4baa-bdb6-187ab11179a6"/>
    <linearGradient id="9bb97e57-492a-4862-a3ad-63719ee6b8bf" x1="135.34" y1="260.77" x2="331.04" y2="260.77" xlink:href="#2ec7d33e-4fa4-4baa-bdb6-187ab11179a6"/>
    <linearGradient id="463417b2-9dfb-4ebd-a1fb-d617f27b9918" x1="135.34" y1="260.93" x2="331.04" y2="260.93" xlink:href="#2ec7d33e-4fa4-4baa-bdb6-187ab11179a6"/>
    <linearGradient id="6d150998-fa44-43d2-bc97-b488572bf50e" x1="135.34" y1="258.33" x2="331.04" y2="258.33" xlink:href="#2ec7d33e-4fa4-4baa-bdb6-187ab11179a6"/>
    <linearGradient id="70095d3b-400e-4af3-aab1-85b9e08e10b5" x1="135.34" y1="259.2" x2="331.04" y2="259.2" xlink:href="#2ec7d33e-4fa4-4baa-bdb6-187ab11179a6"/>
    <linearGradient id="888d9468-d55f-4404-a146-f59c01e0a82d" x1="135.34" y1="259.84" x2="331.04" y2="259.84" xlink:href="#2ec7d33e-4fa4-4baa-bdb6-187ab11179a6"/>
    <linearGradient id="b150818e-d1a4-4c27-bc79-157cc53a3c53" x1="135.34" y1="260.36" x2="331.04" y2="260.36" xlink:href="#2ec7d33e-4fa4-4baa-bdb6-187ab11179a6"/>
    <linearGradient id="7ea6a92b-a1bc-4341-8df9-84a96fcd5cf4" x1="135.34" y1="260.99" x2="331.04" y2="260.99" xlink:href="#2ec7d33e-4fa4-4baa-bdb6-187ab11179a6"/>
    <linearGradient id="2f3d802e-8b5a-4e9e-b3f0-67e376004848" x1="135.34" y1="257.85" x2="331.04" y2="257.85" xlink:href="#2ec7d33e-4fa4-4baa-bdb6-187ab11179a6"/>
    <linearGradient id="a96c56d2-33e0-4c4a-97b6-3e30c210fe4b" x1="135.34" y1="256.47" x2="331.04" y2="256.47" xlink:href="#2ec7d33e-4fa4-4baa-bdb6-187ab11179a6"/>
    <linearGradient id="ca53515e-25a2-4f1e-8bb0-f55286fa3efc" x1="135.34" y1="254.94" x2="331.04" y2="254.94" xlink:href="#2ec7d33e-4fa4-4baa-bdb6-187ab11179a6"/>
    <linearGradient id="7d32167b-8922-4a8d-a3bf-6a011994e83d" x1="135.34" y1="260.35" x2="331.04" y2="260.35" xlink:href="#2ec7d33e-4fa4-4baa-bdb6-187ab11179a6"/>
    <linearGradient id="9c586f8f-2db8-42fa-b36e-9ef60e580cb4" x1="135.34" y1="258.63" x2="331.04" y2="258.63" xlink:href="#2ec7d33e-4fa4-4baa-bdb6-187ab11179a6"/>
    <linearGradient id="e242a308-2733-4e45-8867-dade3350b8b0" x1="135.34" y1="259.89" x2="331.04" y2="259.89" xlink:href="#2ec7d33e-4fa4-4baa-bdb6-187ab11179a6"/>
    <linearGradient id="789e1283-f502-43b9-b6fb-08bc7be4151c" x1="135.34" y1="259.31" x2="331.04" y2="259.31" xlink:href="#2ec7d33e-4fa4-4baa-bdb6-187ab11179a6"/>
    <linearGradient id="4cb8fc1c-c140-4212-8bcb-c992fda413d3" x1="135.34" y1="260.7" x2="331.04" y2="260.7" xlink:href="#2ec7d33e-4fa4-4baa-bdb6-187ab11179a6"/>
    <linearGradient id="74725f07-fae2-4f1d-b689-a0205910c3d6" x1="135.34" y1="253.83" x2="331.04" y2="253.83" xlink:href="#2ec7d33e-4fa4-4baa-bdb6-187ab11179a6"/>
    <linearGradient id="3621d996-f9ba-45e8-bf4a-c59308ac3e23" x1="135.34" y1="249.17" x2="331.04" y2="249.17" xlink:href="#2ec7d33e-4fa4-4baa-bdb6-187ab11179a6"/>
    <linearGradient id="f4e446ef-1da6-47d4-b4b6-e11db44b1034" x1="135.34" y1="256.35" x2="331.04" y2="256.35" xlink:href="#2ec7d33e-4fa4-4baa-bdb6-187ab11179a6"/>
    <linearGradient id="d9fba9c3-093d-4cfd-a255-7975f5746992" x1="135.34" y1="255.11" x2="331.04" y2="255.11" xlink:href="#2ec7d33e-4fa4-4baa-bdb6-187ab11179a6"/>
    <linearGradient id="7721c017-7719-43a1-9605-d06349277e27" x1="135.34" y1="245.5" x2="331.04" y2="245.5" xlink:href="#2ec7d33e-4fa4-4baa-bdb6-187ab11179a6"/>
    <linearGradient id="04e095e3-7c20-4e69-89ea-d3a43635c148" x1="135.34" y1="199.87" x2="331.04" y2="199.87" xlink:href="#2ec7d33e-4fa4-4baa-bdb6-187ab11179a6"/>
    <linearGradient id="f11d0028-74f3-4108-b799-39b145b7d9ab" x1="135.34" y1="257.42" x2="331.04" y2="257.42" xlink:href="#2ec7d33e-4fa4-4baa-bdb6-187ab11179a6"/>
    <linearGradient id="8851d3cd-7d21-44ab-ae26-acae2897419e" x1="135.34" y1="250.79" x2="331.04" y2="250.79" xlink:href="#2ec7d33e-4fa4-4baa-bdb6-187ab11179a6"/>
    <linearGradient id="c49b1a9f-fbef-454b-9220-af196482e6ee" x1="32.9" y1="259.6" x2="228.35" y2="259.6" xlink:href="#2ec7d33e-4fa4-4baa-bdb6-187ab11179a6"/>
    <linearGradient id="99205776-fc2f-4c09-97e6-9a7068e73be8" x1="32.9" y1="249.97" x2="228.35" y2="249.97" xlink:href="#2ec7d33e-4fa4-4baa-bdb6-187ab11179a6"/>
    <linearGradient id="435cbaaa-162d-43eb-9a54-3c829d4f955f" x1="32.9" y1="258.98" x2="228.35" y2="258.98" xlink:href="#2ec7d33e-4fa4-4baa-bdb6-187ab11179a6"/>
    <linearGradient id="c4d5078a-37c4-47eb-ad68-ebb82535b5c4" x1="32.9" y1="247.35" x2="228.35" y2="247.35" xlink:href="#2ec7d33e-4fa4-4baa-bdb6-187ab11179a6"/>
    <linearGradient id="94988a1a-26a4-4c23-9525-5790a372122c" x1="32.9" y1="253.17" x2="228.35" y2="253.17" xlink:href="#2ec7d33e-4fa4-4baa-bdb6-187ab11179a6"/>
    <linearGradient id="2fba3d46-3fc3-485c-b960-2ab0d14a477b" x1="32.9" y1="255.48" x2="228.35" y2="255.48" xlink:href="#2ec7d33e-4fa4-4baa-bdb6-187ab11179a6"/>
    <linearGradient id="f4d6f4f5-fb13-44cd-9025-632c1b2f65b0" x1="32.9" y1="258.28" x2="228.35" y2="258.28" xlink:href="#2ec7d33e-4fa4-4baa-bdb6-187ab11179a6"/>
    <linearGradient id="d2a127aa-38b0-4d2e-8ebb-cb813e20bdd2" x1="32.9" y1="260.16" x2="228.35" y2="260.16" xlink:href="#2ec7d33e-4fa4-4baa-bdb6-187ab11179a6"/>
    <linearGradient id="16bf5c0c-157a-4270-a72e-87eea09511a6" x1="32.9" y1="254.37" x2="228.35" y2="254.37" xlink:href="#2ec7d33e-4fa4-4baa-bdb6-187ab11179a6"/>
    <linearGradient id="37a2ef0a-7ebc-43ba-81a8-d4e86d1cb7ab" x1="32.9" y1="196.87" x2="228.35" y2="196.87" xlink:href="#2ec7d33e-4fa4-4baa-bdb6-187ab11179a6"/>
    <linearGradient id="2c21d7ee-bf8c-4b33-a9ba-923f8f93b6bd" x1="32.9" y1="257.47" x2="228.35" y2="257.47" xlink:href="#2ec7d33e-4fa4-4baa-bdb6-187ab11179a6"/>
    <linearGradient id="7b68e7c5-d212-43f6-8f54-6301b133e26a" x1="32.9" y1="259.51" x2="228.35" y2="259.51" xlink:href="#2ec7d33e-4fa4-4baa-bdb6-187ab11179a6"/>
    <linearGradient id="84d575f9-789a-414c-bb45-25060674c4db" x1="32.9" y1="255.77" x2="228.35" y2="255.77" xlink:href="#2ec7d33e-4fa4-4baa-bdb6-187ab11179a6"/>
    <linearGradient id="d4a77ffa-7ae7-43fd-9434-e75f2abfc78c" x1="32.9" y1="260.13" x2="228.35" y2="260.13" xlink:href="#2ec7d33e-4fa4-4baa-bdb6-187ab11179a6"/>
    <linearGradient id="c39954e7-b4ca-43e4-8377-f04ebc3eca21" x1="32.9" y1="260.57" x2="228.35" y2="260.57" xlink:href="#2ec7d33e-4fa4-4baa-bdb6-187ab11179a6"/>
    <linearGradient id="7318881c-ac6b-4d5b-b7ea-a5f22cee1d43" x1="32.9" y1="256.84" x2="228.35" y2="256.84" xlink:href="#2ec7d33e-4fa4-4baa-bdb6-187ab11179a6"/>
    <linearGradient id="899a3498-688e-4680-a0b2-15dd5bb3dbdc" x1="32.9" y1="258.77" x2="228.35" y2="258.77" xlink:href="#2ec7d33e-4fa4-4baa-bdb6-187ab11179a6"/>
    <linearGradient id="ee95f06d-7db8-4a67-abb9-db398a110991" x1="32.9" y1="257.9" x2="228.35" y2="257.9" xlink:href="#2ec7d33e-4fa4-4baa-bdb6-187ab11179a6"/>
    <linearGradient id="b33df43f-dcc2-43fb-b328-35b18e65aece" x1="32.9" y1="260.83" x2="228.35" y2="260.83" xlink:href="#2ec7d33e-4fa4-4baa-bdb6-187ab11179a6"/>
    <linearGradient id="b2d1491f-1fd1-47aa-8325-441ca0c1a097" x1="32.9" y1="261.01" x2="228.35" y2="261.01" xlink:href="#2ec7d33e-4fa4-4baa-bdb6-187ab11179a6"/>
    <linearGradient id="15d83922-0585-42e4-806e-62e35b4821d9" x1="32.9" y1="260.56" x2="228.35" y2="260.56" xlink:href="#2ec7d33e-4fa4-4baa-bdb6-187ab11179a6"/>
    <linearGradient id="70743f7f-eb7f-4f64-9162-38f85964c196" x1="32.9" y1="260.89" x2="228.35" y2="260.89" xlink:href="#2ec7d33e-4fa4-4baa-bdb6-187ab11179a6"/>
    <linearGradient id="5b0f3444-b843-4cb9-97b5-4611b73d0940" x1="32.9" y1="252.31" x2="228.35" y2="252.31" xlink:href="#2ec7d33e-4fa4-4baa-bdb6-187ab11179a6"/>
    <linearGradient id="de5aa258-3b96-4783-8a4f-aafc244a525c" x1="32.9" y1="254.48" x2="228.35" y2="254.48" xlink:href="#2ec7d33e-4fa4-4baa-bdb6-187ab11179a6"/>
    <linearGradient id="bd39b710-f78d-4a3f-a38c-9c91d097043b" x1="32.9" y1="261.05" x2="228.35" y2="261.05" xlink:href="#2ec7d33e-4fa4-4baa-bdb6-187ab11179a6"/>
    <linearGradient id="ed15dd76-7f15-4644-8015-2fca8c7713f5" x1="135.34" y1="212.34" x2="331.04" y2="212.34" xlink:href="#2ec7d33e-4fa4-4baa-bdb6-187ab11179a6"/>
    <linearGradient id="ea89da28-733a-4722-8c26-633acc42883d" x1="181.84" y1="221.92" x2="181.84" y2="121.69" xlink:href="#2ec7d33e-4fa4-4baa-bdb6-187ab11179a6"/>
    <linearGradient id="b9433334-7e39-4aec-a2af-c6e01074eae3" x1="124.35" y1="238.5" x2="244.71" y2="238.5" xlink:href="#2ec7d33e-4fa4-4baa-bdb6-187ab11179a6"/>
  </defs>
  <title>krabbi-color</title>
  <g id="3fdc5a24-060d-4315-9627-434efe580a16" data-name="Layer 2">
    <g id="9cc36434-cb34-42f6-a4e6-45311d3ca776" data-name="Layer 1">
      <g>
        <path class="551f4223-8d0b-4ce5-9094-89dde1eb558d" d="M365.76,180.86s-18.12,9.06-22,10.56-17.38,4.75-22,5.62-31.13,2.63-36.38,3.13c-2.92.27-8.86.64-13.55.92a71.51,71.51,0,0,0,3.82-10.25c9.13-1,26.1-2.81,29.52-3.38,4.71-.79,21.46-6.79,27.59-9.79s22.62-10.5,25.62-14.88S366,141.52,366,141.52a1.64,1.64,0,0,0-2.8-1.6s-11,14.24-14.06,16.87-14.79,8.88-20.79,11.5-19.6,7.37-24.55,8.5c-3.5.8-18,3.13-26.26,4.43a50.69,50.69,0,0,0,.33-5.76c0-1.41-.05-2.79-.15-4.15,4.84-1,12.95-2.8,16.07-3.85,4.56-1.54,16.61-9.62,21.34-13.33s18-13.5,20-18,3.47-22.63,3.47-22.63a1.41,1.41,0,0,0-2.63-.87s-7.06,14.29-10.83,20.15-9.52,9.77-14.64,13.32-12.69,9.72-18,12c-3.9,1.66-12.14,2.84-16.32,3.35-3.05-11.79-10-21.7-19.62-29.57,22.56-2.76,71.78-12.82,74.71-34.68a27.32,27.32,0,0,0,4-3.37c46.87-47.68-39-109-93-90.45a3.46,3.46,0,0,0-.12,6.48c57.15,22.82,46.22,54.67,36.86,69.49l-2.56-4.86a1.47,1.47,0,0,0-1.42-.79c-4.12.26-20.9-1.27-34-40.67a1.49,1.49,0,0,0-2.9.49C238.45,83,264,89.65,276.94,89.86a5.81,5.81,0,0,0,.5.49c2.49,19-24.21,27.05-36.29,31.78-15.8-7.78-35.41-11.87-56.24-11.87-22.25,0-42.21,4.15-57.88,12-11.85-4.7-39.27-12.68-36.75-32a5.81,5.81,0,0,0,.5-.49c12.93-.21,38.49-6.89,38.73-56.31a1.49,1.49,0,0,0-2.9-.49c-13.06,39.4-29.84,40.93-34,40.67a1.49,1.49,0,0,0-1.43.79l-2.56,4.86C79.31,64.56,68.38,32.71,125.52,9.89a3.46,3.46,0,0,0-.12-6.48c-54-18.6-139.83,42.77-93,90.45a28.4,28.4,0,0,0,4,3.37c3,22.19,53.66,32.22,75.72,34.8a55.23,55.23,0,0,0-18.68,29.68c-2.71-.3-13.6-1.59-18.26-3.58-5.35-2.29-12.91-8.46-18-12s-10.88-7.45-14.65-13.32-10.82-20.15-10.82-20.15a1.4,1.4,0,0,0-2.63.87s1.47,18.15,3.47,22.63,15.25,14.27,20,18,16.77,11.79,21.34,13.33c3.63,1.23,14,3.43,18.13,4.28-.07,1.22-.11,2.46-.11,3.72a52.14,52.14,0,0,0,.37,6.1c-7.53-1.18-24.58-3.9-28.41-4.77-4.95-1.13-18.55-5.87-24.55-8.5s-17.75-8.87-20.78-11.5S4.48,139.92,4.48,139.92a1.64,1.64,0,0,0-2.8,1.6s4.64,16.9,7.64,21.27S28.82,174.67,35,177.67s22.87,9,27.59,9.79c3.71.62,23.42,2.73,31.68,3.61A70.23,70.23,0,0,0,98,201.21c-4.84-.27-12.32-.72-15.72-1-5.25-.5-31.75-2.25-36.37-3.13s-18.13-4.12-22-5.62S2,180.86,2,180.86a1.36,1.36,0,0,0-1.48,2.25s12.34,12.81,18.73,16.35c3.88,2,19.61,5.46,24.66,6.66s33.7,3.3,38.67,3.34c2.86,0,12.36,0,19.92,0q2.39,3.93,5.2,7.71A3,3,0,0,1,105,220c-3.64.38-41.2-2.79-46.67-1.33s-12.28,11.54-12,16,7.76,11.9,7.76,11.9a1.22,1.22,0,0,0,2.24-.67,37.48,37.48,0,0,1,0-9.9c.78-4.37,3.22-6.88,8-8s44.55,1.79,48.67,1.33c1.39-.15,2-1.51,2.18-3.23,18.88,20.34,46.15,34.94,69.77,34.94,22.93,0,49.3-13.75,68.09-33.17a2.15,2.15,0,0,0,1.76,1.46c4.12.46,43.88-2.45,48.67-1.33s7.21,3.63,8,8a37.48,37.48,0,0,1,0,9.9,1.21,1.21,0,0,0,2.23.67s7.48-7.44,7.77-11.9-6.54-14.54-12-16-43,1.71-46.67,1.33a2.74,2.74,0,0,1-2-1,97.55,97.55,0,0,0,6.58-9.53c7.13,0,15.22,0,17.82,0,5,0,33.61-2.13,38.66-3.34s20.79-4.62,24.67-6.66c6.38-3.54,18.73-16.35,18.73-16.35A1.36,1.36,0,0,0,365.76,180.86Z"/>
        <path class="e66740cb-25ce-41e5-a443-c1a67b794fed" d="M185,110.26c-22.25,0-42.21,4.15-57.88,12l-.18-.07a67.35,67.35,0,1,0,113.79-.35C225,114.27,205.6,110.26,185,110.26Z"/>
        <g>
          <path class="95a4f267-d689-4729-8767-6c8ebcbd2a4c" d="M242.19,9.89c13.29,5.3,22.89,11.1,29.69,17.05a102.5,102.5,0,0,0-22.8-25.4,59.94,59.94,0,0,0-6.77,1.87A3.46,3.46,0,0,0,242.19,9.89Z"/>
          <path class="645c95cd-0b9a-42b9-9bb6-7fdf40b60a08" d="M125.52,9.89a3.46,3.46,0,0,0-.12-6.48c-1.44-.5-2.91-.93-4.4-1.31A102.55,102.55,0,0,0,102.27,22,117.7,117.7,0,0,1,125.52,9.89Z"/>
        </g>
        <path class="fe3d2f08-6379-4fc4-a328-f7c469eacb8b" d="M91.67,99.94a17.29,17.29,0,0,1-1.39-9.59,5.81,5.81,0,0,0,.5-.49c12.93-.21,38.49-6.89,38.73-56.31a1.49,1.49,0,0,0-2.9-.49c-13.06,39.4-29.84,40.93-34,40.67a1.49,1.49,0,0,0-1.43.79l-2.56,4.86C79.31,64.56,68.38,32.71,125.52,9.89a3.46,3.46,0,0,0-.12-6.48c-54-18.6-139.83,42.77-93,90.45a27.94,27.94,0,0,0,4,3.34A102.71,102.71,0,0,0,69,102.47,103.07,103.07,0,0,0,91.67,99.94Z"/>
        <path class="49982865-b973-4fca-bbe8-0458d3bac9d7" d="M293.39,104.4a102.56,102.56,0,0,0,38-7.23,28.63,28.63,0,0,0,3.93-3.31c46.87-47.68-39-109-93-90.45a3.46,3.46,0,0,0-.12,6.48c57.15,22.82,46.22,54.67,36.86,69.49l-2.56-4.86a1.47,1.47,0,0,0-1.42-.79c-4.12.26-20.9-1.27-34-40.67a1.49,1.49,0,0,0-2.9.49C238.45,83,264,89.65,276.94,89.86a5.81,5.81,0,0,0,.5.49,17.44,17.44,0,0,1-2.92,12.32A103.88,103.88,0,0,0,293.39,104.4Z"/>
        <g>
          <path class="2c4c7e52-965a-45bc-9563-befbb39d86cd" d="M242.31,3.41a3.43,3.43,0,0,0-1.44,1,103.85,103.85,0,0,1,76.8,97.16,103.7,103.7,0,0,0,13.68-4.35,28.63,28.63,0,0,0,3.93-3.31C382.15,46.18,296.29-15.19,242.31,3.41Z"/>
          <path class="70dba494-6412-49b4-98bf-f3dc0ea662bf" d="M240.87,4.36a3.48,3.48,0,0,0,1.32,5.53c57.15,22.82,46.22,54.67,36.86,69.49l-2.56-4.86a1.47,1.47,0,0,0-1.42-.79c-4.12.26-20.9-1.27-34-40.67a1.49,1.49,0,0,0-2.9.49C238.45,83,264,89.65,276.94,89.86a5.81,5.81,0,0,0,.5.49,17.44,17.44,0,0,1-2.92,12.32,103.88,103.88,0,0,0,18.87,1.73,103.38,103.38,0,0,0,24.28-2.88A103.85,103.85,0,0,0,240.87,4.36Z"/>
          <path class="024cff05-27fc-47e3-aacd-dd9ba41ee538" d="M240.87,4.36a3.48,3.48,0,0,0,1.32,5.53c57.15,22.82,46.22,54.67,36.86,69.49l-2.56-4.86a1.47,1.47,0,0,0-1.42-.79c-4.12.26-20.9-1.27-34-40.67a1.49,1.49,0,0,0-2.9.49C238.45,83,264,89.65,276.94,89.86a5.81,5.81,0,0,0,.5.49,17.44,17.44,0,0,1-2.92,12.32,103.88,103.88,0,0,0,18.87,1.73,103.38,103.38,0,0,0,24.28-2.88A103.85,103.85,0,0,0,240.87,4.36Z"/>
        </g>
        <g>
          <path class="0c5353c3-3187-484d-9eb2-540ec0100c98" d="M127.56,5.63a3.34,3.34,0,0,0-2.16-2.22c-54-18.6-139.83,42.77-93,90.45a27.94,27.94,0,0,0,4,3.34c1.68.56,3.39,1.07,5.11,1.54A103.72,103.72,0,0,1,127.56,5.63Z"/>
          <path class="9b548ab2-ffd2-45a1-8285-a07a2dcb9a69" d="M91.67,99.94a17.29,17.29,0,0,1-1.39-9.59,5.81,5.81,0,0,0,.5-.49c12.93-.21,38.49-6.89,38.73-56.31a1.49,1.49,0,0,0-2.9-.49c-13.06,39.4-29.84,40.93-34,40.67a1.49,1.49,0,0,0-1.43.79l-2.56,4.86C79.31,64.56,68.38,32.71,125.52,9.89a3.47,3.47,0,0,0,2-4.26,103.72,103.72,0,0,0-86,93.11A102.49,102.49,0,0,0,69,102.47,103.07,103.07,0,0,0,91.67,99.94Z"/>
          <path class="7473fe26-7ac5-4ff8-aec6-972f9b939877" d="M91.67,99.94a17.29,17.29,0,0,1-1.39-9.59,5.81,5.81,0,0,0,.5-.49c12.93-.21,38.49-6.89,38.73-56.31a1.49,1.49,0,0,0-2.9-.49c-13.06,39.4-29.84,40.93-34,40.67a1.49,1.49,0,0,0-1.43.79l-2.56,4.86C79.31,64.56,68.38,32.71,125.52,9.89a3.47,3.47,0,0,0,2-4.26,103.72,103.72,0,0,0-86,93.11A102.49,102.49,0,0,0,69,102.47,103.07,103.07,0,0,0,91.67,99.94Z"/>
        </g>
        <g>
          <path class="7685c2f6-d06e-412d-8e29-53eac50aa063" d="M217.54,253.19c-.84.39-1.69.76-2.54,1.12C215.85,254,216.7,253.58,217.54,253.19Z"/>
          <path class="46681a67-2a7b-4d8a-af3f-c6314c2a3010" d="M187.35,261c-.82,0-1.63.05-2.44.05C185.72,261.08,186.53,261.06,187.35,261Z"/>
          <path class="4c4fc633-bd4f-4325-a0a2-8b5dfb1a7ede" d="M179.28,260.81l-.72-.07Z"/>
          <path class="3b65b4d4-bf88-46b2-a06d-1a7d00df8fc1" d="M189.84,260.87l-1.73.12Z"/>
          <path class="79cca874-fa85-47fe-84c4-8386577786c4" d="M166.41,258.4l-.47-.13Z"/>
          <path class="aeaed66a-bad3-4eae-a823-9836253018c9" d="M169.82,259.26l-.53-.12Z"/>
          <path class="f5c120f0-a416-4a82-8207-081d318876b9" d="M172.94,259.92l-.78-.16Z"/>
          <path class="b5a6f034-ec3d-46b7-bada-9c52a71f7241" d="M175.77,260.39l-.37-.06Z"/>
          <path class="aab33f39-d3ed-4cf1-a731-581564caf353" d="M182.18,261l-.79,0Z"/>
          <path class="bd9467f7-5ba5-4a11-96be-4b3317cc19e8" d="M206.4,257.51q-1.14.36-2.28.69Q205.26,257.87,206.4,257.51Z"/>
          <path class="00e2db14-7aaf-4ea6-8a61-6ff3f5996edb" d="M212.08,255.51q-2.7,1-5.4,1.91Q209.38,256.57,212.08,255.51Z"/>
          <path class="3cc6abfc-8e33-481a-8277-f5871493b7c6" d="M214.73,254.43c-.84.35-1.68.7-2.53,1C213.05,255.13,213.89,254.78,214.73,254.43Z"/>
          <path class="324b3239-4c6f-4449-8bdd-e648b0676847" d="M195.3,260.2l-2.09.31Z"/>
          <path class="cd100998-d62b-4b28-8627-77da87c70d97" d="M203.52,258.37l-2,.53Z"/>
          <path class="e203392b-8456-4131-bfba-36c959d21b37" d="M198.3,259.64c-.87.18-1.73.34-2.59.49C196.57,260,197.43,259.82,198.3,259.64Z"/>
          <path class="b05546cd-d07c-470c-854c-805532488a68" d="M200.87,259.06c-.74.18-1.48.35-2.22.5C199.39,259.41,200.13,259.24,200.87,259.06Z"/>
          <path class="e6ace289-90fa-49d7-b9f3-410695e8206b" d="M192.41,260.61l-1.71.18Z"/>
          <path class="ebdc2f58-69ed-4bb0-a78c-e5e195328190" d="M154,253.94l-.48-.21Z"/>
          <path class="2d37d7ee-a43e-478d-9995-85be992e990f" d="M144.51,249.24l-.24-.14Z"/>
          <path class="0017f024-6d2e-4e74-ab1c-f48ad12c6d59" d="M160,256.37l-.09,0Z"/>
          <path class="bfdcfdb9-76fd-4d3a-9be2-3449d3b12460" d="M157,255.2l-.43-.18Z"/>
          <path class="f0022986-b956-4d27-914b-b6b1b807896f" d="M138.44,245.59l-.3-.19Z"/>
          <path class="1466b8d1-cb2e-47bf-bea5-82f9102cd038" d="M285.18,209.46c5,0,33.61-2.13,38.66-3.34,1.59-.38,4.22-1,7.2-1.67q-2.13-4.32-4.63-8.4c-1.89.43-3.53.78-4.64,1-4.63.88-31.13,2.63-36.38,3.13-2.92.27-8.86.64-13.55.92a71.51,71.51,0,0,0,3.82-10.25c9.13-1,26.1-2.81,29.52-3.38a103.28,103.28,0,0,0,12.37-3.75,106,106,0,0,0-8-8.56c-2.33.74-4.36,1.33-5.72,1.64-3.5.8-18,3.13-26.26,4.43a50.69,50.69,0,0,0,.33-5.76c0-1.41-.05-2.79-.15-4.15,4.84-1,12.95-2.8,16.07-3.85a28.34,28.34,0,0,0,4.07-1.93,106.34,106.34,0,0,0-9.68-6.09,115.43,115.43,0,0,1-12.05,2,53.07,53.07,0,0,0-3.21-8.94,102.93,102.93,0,0,0-91.21,11.06,104,104,0,0,1,46.6,83.88,115.07,115.07,0,0,1-10.73,5.67A119.75,119.75,0,0,0,253,227.91a2.15,2.15,0,0,0,1.76,1.46c4.12.46,43.88-2.45,48.67-1.33s7.21,3.63,8,8a37.48,37.48,0,0,1,0,9.9,1.21,1.21,0,0,0,2.23.67s7.48-7.44,7.77-11.9-6.54-14.54-12-16-43,1.71-46.67,1.33a2.74,2.74,0,0,1-2-1,97.55,97.55,0,0,0,6.58-9.53C274.49,209.48,282.58,209.48,285.18,209.46Z"/>
          <path class="40ae350c-12a0-4eba-ae3d-07da05f4d5bf" d="M163.48,257.53l-.67-.21Z"/>
          <path class="fc50b78b-2646-4cc0-a86f-40f70512014a" d="M147.58,250.89l-.37-.19Z"/>
          <path class="667f1316-3153-40d2-a845-b666f0f07e88" d="M198.65,259.56l-.35.08Z"/>
          <path class="950ab8ad-3879-493c-baff-e4979ee56851" d="M147.21,250.7c-.9-.48-1.8-1-2.7-1.46C145.41,249.74,146.31,250.22,147.21,250.7Z"/>
          <path class="263b9094-a75a-47ba-b011-95562222218e" d="M201.5,258.9l-.63.16Z"/>
          <path class="7cd57322-9589-4b7c-8798-92560758c003" d="M144.27,249.1c-2-1.1-3.91-2.27-5.83-3.51C140.36,246.83,142.31,248,144.27,249.1Z"/>
          <path class="351cb91b-92fe-4d2f-a315-81dd319d0ade" d="M217.62,253.15l-.08,0Z"/>
          <path class="61609e7f-0810-4990-9dfd-1eef18135f1d" d="M212.2,255.46l-.12,0Z"/>
          <path class="7a9c28f8-d771-4e15-a4aa-477a2d968d6a" d="M204.12,258.2l-.6.17Z"/>
          <path class="95045ee6-3f76-4f6d-8fba-2b9b6b583fdc" d="M195.71,260.13l-.41.07Z"/>
          <path class="8dce185e-aeb2-4386-9593-79a308cdeafb" d="M215,254.31l-.27.12Z"/>
          <path class="dfa8bb76-88e7-4fcc-b4b6-506d10216961" d="M181.75,163.6a102.94,102.94,0,0,0-84.12-13.3,53.3,53.3,0,0,0-4.14,11.41c-2.46-.27-11.62-1.36-16.79-3a102.89,102.89,0,0,0-9.2,5.54,40,40,0,0,0,6.39,3.25c3.63,1.23,14,3.43,18.13,4.28-.07,1.22-.11,2.46-.11,3.72a52.14,52.14,0,0,0,.37,6.1c-7.53-1.18-24.58-3.9-28.41-4.77-1.94-.44-5.22-1.45-8.85-2.66a105.43,105.43,0,0,0-8.1,8.41c6.32,2.32,12.93,4.47,15.62,4.92,3.71.62,23.42,2.73,31.68,3.61A70.23,70.23,0,0,0,98,201.21c-4.84-.27-12.32-.72-15.72-1-5.25-.5-31.75-2.25-36.37-3.13-1.8-.34-4.94-1-8.34-1.86-1.69,2.71-3.27,5.5-4.71,8.36,4.44,1.09,8.75,2.05,11,2.58,5.05,1.21,33.7,3.3,38.67,3.34,2.86,0,12.36,0,19.92,0q2.39,3.93,5.2,7.71A3,3,0,0,1,105,220c-3.64.38-41.2-2.79-46.67-1.33s-12.28,11.54-12,16,7.76,11.9,7.76,11.9a1.22,1.22,0,0,0,2.24-.67,37.48,37.48,0,0,1,0-9.9c.78-4.37,3.22-6.88,8-8s44.55,1.79,48.67,1.33c1.39-.15,2-1.51,2.18-3.23a121.29,121.29,0,0,0,23,19.26c-.94-.61-1.88-1.23-2.8-1.87A104,104,0,0,1,181.75,163.6Z"/>
          <path class="27c0f91c-b1ee-4354-a8f0-059df3026f0e" d="M206.68,257.42l-.28.09Z"/>
          <path class="909c190b-8b0e-4909-beed-c5fbf07da120" d="M172.16,259.76c-.78-.15-1.56-.32-2.34-.5C170.6,259.44,171.38,259.61,172.16,259.76Z"/>
          <path class="a131ee49-f8c7-48a1-a1d8-81a22d39c363" d="M160,256.34c-1-.36-2-.75-3-1.14C158,255.59,159,256,160,256.34Z"/>
          <path class="a15b4d6d-8367-4c19-b64a-4e0ec360f995" d="M175.4,260.33c-.82-.12-1.64-.26-2.46-.41C173.76,260.07,174.58,260.21,175.4,260.33Z"/>
          <path class="a70a2c9f-9647-4ea7-bab8-9cd30fd8581f" d="M178.56,260.74c-.93-.1-1.86-.21-2.79-.35C176.7,260.53,177.63,260.64,178.56,260.74Z"/>
          <path class="59e060aa-d8ff-4d25-b355-62f82e77f350" d="M162.81,257.32c-.92-.3-1.85-.62-2.77-.95C161,256.7,161.89,257,162.81,257.32Z"/>
          <path class="118159de-501b-4cc3-bfd2-357cd92a80d1" d="M169.29,259.14c-1-.23-1.92-.47-2.88-.74C167.37,258.67,168.33,258.91,169.29,259.14Z"/>
          <path class="d98bbbaf-1ed6-484c-a94b-29dfab663df9" d="M165.94,258.27c-.82-.24-1.64-.48-2.46-.74C164.3,257.79,165.12,258,165.94,258.27Z"/>
          <path class="57cbf0ff-8094-477a-9219-caed29b47801" d="M190.7,260.79l-.86.08Z"/>
          <path class="8b12e127-15d2-4144-9e9b-b7ad53a91f95" d="M188.11,261l-.76,0Z"/>
          <path class="caebd01a-56e7-4f22-bb24-edd092a0de66" d="M193.21,260.51l-.8.1Z"/>
          <path class="567c64e7-88af-4640-8c0f-8e758a6a9a6e" d="M181.39,261c-.7,0-1.4-.1-2.11-.16C180,260.87,180.69,260.93,181.39,261Z"/>
          <path class="be52820f-24aa-4e2c-8575-a42e45578009" d="M153.47,253.73c-2-.88-3.94-1.83-5.89-2.84C149.53,251.9,151.5,252.85,153.47,253.73Z"/>
          <path class="e49ba928-547f-4a8d-999c-bdb94d92f6da" d="M156.52,255c-.86-.35-1.71-.71-2.57-1.08C154.81,254.31,155.66,254.67,156.52,255Z"/>
          <path class="d147cdec-eac7-403f-bd52-6f69842ff0ce" d="M184.91,261.08c-.9,0-1.81,0-2.73-.07C183.1,261.05,184,261.08,184.91,261.08Z"/>
          <path class="c50b785e-959e-49d0-bf7b-0e1da55503bf" d="M181.75,163.6a104,104,0,0,0-46.41,79.93c.92.64,1.86,1.26,2.8,1.87l.3.19c1.92,1.24,3.87,2.41,5.83,3.51l.24.14c.9.5,1.8,1,2.7,1.46l.37.19c1.95,1,3.92,2,5.89,2.84l.48.21c.86.37,1.71.73,2.57,1.08l.43.18c1,.39,2,.78,3,1.14l.09,0c.92.33,1.85.65,2.77.95l.67.21c.82.26,1.64.5,2.46.74l.47.13c1,.27,1.92.51,2.88.74l.53.12c.78.18,1.56.35,2.34.5l.78.16c.82.15,1.64.29,2.46.41l.37.06c.93.14,1.86.25,2.79.35l.72.07c.71.06,1.41.12,2.11.16l.79,0c.92,0,1.83.07,2.73.07s1.62,0,2.44-.05l.76,0,1.73-.12.86-.08,1.71-.18.8-.1,2.09-.31.41-.07c.86-.15,1.72-.31,2.59-.49l.35-.08c.74-.15,1.48-.32,2.22-.5l.63-.16,2-.53.6-.17q1.14-.33,2.28-.69l.28-.09q2.7-.85,5.4-1.91l.12,0c.85-.33,1.69-.68,2.53-1l.27-.12c.85-.36,1.7-.73,2.54-1.12l.08,0a115.07,115.07,0,0,0,10.73-5.67A104,104,0,0,0,181.75,163.6Z"/>
          <path class="20fa5645-9941-43c1-b24e-3e76f4cc7ea9" d="M181.75,163.6a104,104,0,0,0-46.41,79.93c.92.64,1.86,1.26,2.8,1.87l.3.19c1.92,1.24,3.87,2.41,5.83,3.51l.24.14c.9.5,1.8,1,2.7,1.46l.37.19c1.95,1,3.92,2,5.89,2.84l.48.21c.86.37,1.71.73,2.57,1.08l.43.18c1,.39,2,.78,3,1.14l.09,0c.92.33,1.85.65,2.77.95l.67.21c.82.26,1.64.5,2.46.74l.47.13c1,.27,1.92.51,2.88.74l.53.12c.78.18,1.56.35,2.34.5l.78.16c.82.15,1.64.29,2.46.41l.37.06c.93.14,1.86.25,2.79.35l.72.07c.71.06,1.41.12,2.11.16l.79,0c.92,0,1.83.07,2.73.07s1.62,0,2.44-.05l.76,0,1.73-.12.86-.08,1.71-.18.8-.1,2.09-.31.41-.07c.86-.15,1.72-.31,2.59-.49l.35-.08c.74-.15,1.48-.32,2.22-.5l.63-.16,2-.53.6-.17q1.14-.33,2.28-.69l.28-.09q2.7-.85,5.4-1.91l.12,0c.85-.33,1.69-.68,2.53-1l.27-.12c.85-.36,1.7-.73,2.54-1.12l.08,0a115.07,115.07,0,0,0,10.73-5.67A104,104,0,0,0,181.75,163.6Z"/>
        </g>
        <path class="45a30f13-325e-4845-8a4d-31ffb98ddb43" d="M244.71,235.69A102.86,102.86,0,0,0,124.35,235c17.92,15.57,40.55,26,60.56,26C204.64,261.08,226.9,250.9,244.71,235.69Z"/>
        <g>
          <g>
            <circle class="a02c833c-3711-4c0d-a131-143a37749b9d" cx="150.91" cy="186.74" r="28.7"/>
            <circle class="912f26bf-b1b1-40d8-a851-54b588c61124" cx="150.91" cy="186.74" r="16.64"/>
            <circle class="a02c833c-3711-4c0d-a131-143a37749b9d" cx="155.93" cy="181.77" r="9.75"/>
            <circle class="a02c833c-3711-4c0d-a131-143a37749b9d" cx="143.65" cy="193.93" r="2.29"/>
          </g>
          <g>
            <circle class="a02c833c-3711-4c0d-a131-143a37749b9d" cx="218.91" cy="187.74" r="28.7"/>
            <circle class="912f26bf-b1b1-40d8-a851-54b588c61124" cx="218.91" cy="187.74" r="16.64"/>
            <circle class="a02c833c-3711-4c0d-a131-143a37749b9d" cx="223.93" cy="182.77" r="9.75"/>
            <circle class="a02c833c-3711-4c0d-a131-143a37749b9d" cx="211.65" cy="194.93" r="2.29"/>
          </g>
        </g>
      </g>
    </g>
  </g>
</svg>
